<svg xmlns="http://www.w3.org/2000/svg" width="1440" height="900"><path d="M788,360L977,491L921,357Z" fill="#e15aa2" stroke="#e15aa2" stroke-width="1.51"/><path d="M685,615L851,686L977,491Z" fill="#e33488" stroke="#e33488" stroke-width="1.51"/><path d="M788,360L685,615L977,491Z" fill="#e34f9f" stroke="#e34f9f" stroke-width="1.51"/><path d="M685,615L757,724L851,686Z" fill="#d93c7d" stroke="#d93c7d" stroke-width="1.51"/><path d="M788,360L567,353L685,615Z" fill="#dd6db3" stroke="#dd6db3" stroke-width="1.51"/><path d="M544,185L567,353L788,360Z" fill="#d28fc4" stroke="#d28fc4" stroke-width="1.51"/><path d="M921,357L784,113L788,360Z" fill="#dd7cb4" stroke="#dd7cb4" stroke-width="1.51"/><path d="M977,491L1120,280L921,357Z" fill="#d95b94" stroke="#d95b94" stroke-width="1.51"/><path d="M1172,528L1120,280L977,491Z" fill="#d64883" stroke="#d64883" stroke-width="1.51"/><path d="M1101,807L1172,528L977,491Z" fill="#d51965" stroke="#d51965" stroke-width="1.51"/><path d="M567,353L529,515L685,615Z" fill="#db6fb0" stroke="#db6fb0" stroke-width="1.51"/><path d="M501,787L745,921L757,724Z" fill="#b54376" stroke="#b54376" stroke-width="1.51"/><path d="M987,93L784,113L921,357Z" fill="#e785b5" stroke="#e785b5" stroke-width="1.51"/><path d="M1120,280L987,93L921,357Z" fill="#dc769f" stroke="#dc769f" stroke-width="1.51"/><path d="M784,113L544,185L788,360Z" fill="#dc94c6" stroke="#dc94c6" stroke-width="1.51"/><path d="M323,400L351,516L529,515Z" fill="#dd89be" stroke="#dd89be" stroke-width="1.51"/><path d="M851,686L1101,807L977,491Z" fill="#d71b68" stroke="#d71b68" stroke-width="1.51"/><path d="M854,911L1101,807L851,686Z" fill="#b9135e" stroke="#b9135e" stroke-width="1.51"/><path d="M757,724L854,911L851,686Z" fill="#c12b6f" stroke="#c12b6f" stroke-width="1.51"/><path d="M745,921L854,911L757,724Z" fill="#af2d65" stroke="#af2d65" stroke-width="1.51"/><path d="M1172,528L1317,484L1120,280Z" fill="#c4447c" stroke="#c4447c" stroke-width="1.51"/><path d="M1120,280L1157,88L987,93Z" fill="#df829a" stroke="#df829a" stroke-width="1.51"/><path d="M1320,785L1317,484L1172,528Z" fill="#b9125c" stroke="#b9125c" stroke-width="1.51"/><path d="M501,787L757,724L685,615Z" fill="#ce4e83" stroke="#ce4e83" stroke-width="1.51"/><path d="M1344,207L1157,88L1120,280Z" fill="#c87491" stroke="#c87491" stroke-width="1.51"/><path d="M529,515L501,787L685,615Z" fill="#d65f93" stroke="#d65f93" stroke-width="1.51"/><path d="M351,516L501,787L529,515Z" fill="#db6fa1" stroke="#db6fa1" stroke-width="1.51"/><path d="M1157,88L990,-25L987,93Z" fill="#eb91a7" stroke="#eb91a7" stroke-width="1.51"/><path d="M987,93L990,-25L784,113Z" fill="#f196ba" stroke="#f196ba" stroke-width="1.51"/><path d="M784,113L546,12L544,185Z" fill="#e0b2d6" stroke="#e0b2d6" stroke-width="1.51"/><path d="M323,400L529,515L567,353Z" fill="#d48bc2" stroke="#d48bc2" stroke-width="1.51"/><path d="M990,-25L716,-42L784,113Z" fill="#f3a2c7" stroke="#f3a2c7" stroke-width="1.51"/><path d="M1317,484L1388,399L1120,280Z" fill="#b74c7c" stroke="#b74c7c" stroke-width="1.51"/><path d="M1507,384L1388,399L1599,540Z" fill="#a33764" stroke="#a33764" stroke-width="1.51"/><path d="M369,153L567,353L544,185Z" fill="#d0abd2" stroke="#d0abd2" stroke-width="1.51"/><path d="M369,153L323,400L567,353Z" fill="#cfa7d0" stroke="#cfa7d0" stroke-width="1.51"/><path d="M716,-42L546,12L784,113Z" fill="#eab1d6" stroke="#eab1d6" stroke-width="1.51"/><path d="M1388,399L1344,207L1120,280Z" fill="#b45e82" stroke="#b45e82" stroke-width="1.51"/><path d="M1157,88L1138,-45L990,-25Z" fill="#e992a2" stroke="#e992a2" stroke-width="1.51"/><path d="M1101,807L1320,785L1172,528Z" fill="#b4094d" stroke="#b4094d" stroke-width="1.51"/><path d="M1296,934L1320,785L1101,807Z" fill="#8f013b" stroke="#8f013b" stroke-width="1.51"/><path d="M880,1095L1129,965L854,911Z" fill="#a20f4a" stroke="#a20f4a" stroke-width="1.51"/><path d="M854,911L1129,965L1101,807Z" fill="#9d0a42" stroke="#9d0a42" stroke-width="1.51"/><path d="M546,12L369,153L544,185Z" fill="#d9bfdd" stroke="#d9bfdd" stroke-width="1.51"/><path d="M990,-25L748,-189L716,-42Z" fill="#f3a5c9" stroke="#f3a5c9" stroke-width="1.51"/><path d="M1312,-29L1138,-45L1157,88Z" fill="#d88b9c" stroke="#d88b9c" stroke-width="1.51"/><path d="M745,921L880,1095L854,911Z" fill="#a42458" stroke="#a42458" stroke-width="1.51"/><path d="M776,1225L880,1095L745,921Z" fill="#a4295b" stroke="#a4295b" stroke-width="1.51"/><path d="M1129,965L1296,934L1101,807Z" fill="#8b0235" stroke="#8b0235" stroke-width="1.51"/><path d="M1599,540L1388,399L1317,484Z" fill="#a43060" stroke="#a43060" stroke-width="1.51"/><path d="M1123,1142L1296,934L1129,965Z" fill="#8a0234" stroke="#8a0234" stroke-width="1.51"/><path d="M1344,207L1312,-29L1157,88Z" fill="#c78094" stroke="#c78094" stroke-width="1.51"/><path d="M1388,399L1507,384L1344,207Z" fill="#a05170" stroke="#a05170" stroke-width="1.51"/><path d="M1599,540L1317,484L1582,734Z" fill="#a3104d" stroke="#a3104d" stroke-width="1.51"/><path d="M910,-303L748,-189L990,-25Z" fill="#f69ec2" stroke="#f69ec2" stroke-width="1.51"/><path d="M716,-42L544,-210L546,12Z" fill="#e6bddc" stroke="#e6bddc" stroke-width="1.51"/><path d="M546,12L299,7L369,153Z" fill="#e0cde4" stroke="#e0cde4" stroke-width="1.51"/><path d="M1105,-317L910,-303L990,-25Z" fill="#f197b0" stroke="#f197b0" stroke-width="1.51"/><path d="M1537,132L1312,-29L1344,207Z" fill="#b37884" stroke="#b37884" stroke-width="1.51"/><path d="M501,787L459,1003L745,921Z" fill="#9d4b6b" stroke="#9d4b6b" stroke-width="1.51"/><path d="M328,919L459,1003L501,787Z" fill="#a05b72" stroke="#a05b72" stroke-width="1.51"/><path d="M276,814L501,787L351,516Z" fill="#d07191" stroke="#d07191" stroke-width="1.51"/><path d="M93,623L276,814L351,516Z" fill="#e385a2" stroke="#e385a2" stroke-width="1.51"/><path d="M276,814L328,919L501,787Z" fill="#b06680" stroke="#b06680" stroke-width="1.51"/><path d="M340,-198L299,7L546,12Z" fill="#e5d3e7" stroke="#e5d3e7" stroke-width="1.51"/><path d="M125,105L51,351L323,400Z" fill="#dbc3e0" stroke="#dbc3e0" stroke-width="1.51"/><path d="M323,400L93,623L351,516Z" fill="#e693bf" stroke="#e693bf" stroke-width="1.51"/><path d="M880,1095L1123,1142L1129,965Z" fill="#9b093e" stroke="#9b093e" stroke-width="1.51"/><path d="M348,1225L564,1140L459,1003Z" fill="#9f5871" stroke="#9f5871" stroke-width="1.51"/><path d="M459,1003L564,1140L745,921Z" fill="#9e496a" stroke="#9e496a" stroke-width="1.51"/><path d="M880,1095L776,1225L1123,1142Z" fill="#a4114e" stroke="#a4114e" stroke-width="1.51"/><path d="M748,-189L544,-210L716,-42Z" fill="#ebb5d7" stroke="#ebb5d7" stroke-width="1.51"/><path d="M1582,734L1317,484L1320,785Z" fill="#9f083e" stroke="#9f083e" stroke-width="1.51"/><path d="M1507,384L1537,132L1344,207Z" fill="#a25f74" stroke="#a25f74" stroke-width="1.51"/><path d="M1726,341L1537,132L1507,384Z" fill="#9f5871" stroke="#9f5871" stroke-width="1.51"/><path d="M564,1140L776,1225L745,921Z" fill="#a23964" stroke="#a23964" stroke-width="1.51"/><path d="M748,-189L910,-303L544,-210Z" fill="#f0add3" stroke="#f0add3" stroke-width="1.51"/><path d="M1105,-317L990,-25L1138,-45Z" fill="#ec93a4" stroke="#ec93a4" stroke-width="1.51"/><path d="M1589,994L1320,785L1296,934Z" fill="#6c0022" stroke="#6c0022" stroke-width="1.51"/><path d="M1589,994L1582,734L1320,785Z" fill="#740029" stroke="#740029" stroke-width="1.51"/><path d="M276,814L60,1012L328,919Z" fill="#ab717c" stroke="#ab717c" stroke-width="1.51"/><path d="M51,351L93,623L323,400Z" fill="#e8a6ce" stroke="#e8a6ce" stroke-width="1.51"/><path d="M125,105L323,400L369,153Z" fill="#d9c3df" stroke="#d9c3df" stroke-width="1.51"/><path d="M80,-56L125,105L299,7Z" fill="#eee9f4" stroke="#eee9f4" stroke-width="1.51"/><path d="M299,7L125,105L369,153Z" fill="#e4d9eb" stroke="#e4d9eb" stroke-width="1.51"/><path d="M1382,-278L1105,-317L1138,-45Z" fill="#d78b9b" stroke="#d78b9b" stroke-width="1.51"/><path d="M1382,-278L1138,-45L1312,-29Z" fill="#cc8796" stroke="#cc8796" stroke-width="1.51"/><path d="M544,-210L340,-198L546,12Z" fill="#e2cae3" stroke="#e2cae3" stroke-width="1.51"/><path d="M91,-235L340,-198L544,-210Z" fill="#e8daeb" stroke="#e8daeb" stroke-width="1.51"/><path d="M93,623L65,770L276,814Z" fill="#d6869a" stroke="#d6869a" stroke-width="1.51"/><path d="M328,919L348,1225L459,1003Z" fill="#a26075" stroke="#a26075" stroke-width="1.51"/><path d="M-97,700L65,770L93,623Z" fill="#e690a1" stroke="#e690a1" stroke-width="1.51"/><path d="M1797,607L1726,341L1599,540Z" fill="#a42a5c" stroke="#a42a5c" stroke-width="1.51"/><path d="M1599,540L1726,341L1507,384Z" fill="#a13c66" stroke="#a13c66" stroke-width="1.51"/><path d="M1726,-44L1583,-58L1537,132Z" fill="#b47d83" stroke="#b47d83" stroke-width="1.51"/><path d="M1537,132L1583,-58L1312,-29Z" fill="#b47c83" stroke="#b47c83" stroke-width="1.51"/><path d="M1477,1151L1589,994L1296,934Z" fill="#67001f" stroke="#67001f" stroke-width="1.51"/><path d="M1582,734L1797,607L1599,540Z" fill="#9e0c44" stroke="#9e0c44" stroke-width="1.51"/><path d="M1459,-266L1382,-278L1312,-29Z" fill="#bd818a" stroke="#bd818a" stroke-width="1.51"/><path d="M1123,1142L1396,1195L1296,934Z" fill="#7e0030" stroke="#7e0030" stroke-width="1.51"/><path d="M776,1225L1396,1195L1123,1142Z" fill="#960539" stroke="#960539" stroke-width="1.51"/><path d="M-159,532L-97,700L93,623Z" fill="#f298b2" stroke="#f298b2" stroke-width="1.51"/><path d="M125,105L-43,309L51,351Z" fill="#e2cfe6" stroke="#e2cfe6" stroke-width="1.51"/><path d="M-86,212L-43,309L125,105Z" fill="#e7d9eb" stroke="#e7d9eb" stroke-width="1.51"/><path d="M564,1140L348,1225L776,1225Z" fill="#9d4d6c" stroke="#9d4d6c" stroke-width="1.51"/><path d="M170,1214L348,1225L328,919Z" fill="#a76a79" stroke="#a76a79" stroke-width="1.51"/><path d="M1396,1195L1477,1151L1296,934Z" fill="#6d0024" stroke="#6d0024" stroke-width="1.51"/><path d="M340,-198L80,-56L299,7Z" fill="#ece4f0" stroke="#ece4f0" stroke-width="1.51"/><path d="M1583,-58L1459,-266L1312,-29Z" fill="#b57e83" stroke="#b57e83" stroke-width="1.51"/><path d="M1768,826L1797,607L1582,734Z" fill="#8e0336" stroke="#8e0336" stroke-width="1.51"/><path d="M-15,950L60,1012L65,770Z" fill="#b37c82" stroke="#b37c82" stroke-width="1.51"/><path d="M65,770L60,1012L276,814Z" fill="#b77a87" stroke="#b77a87" stroke-width="1.51"/><path d="M-159,532L93,623L51,351Z" fill="#f2a6cb" stroke="#f2a6cb" stroke-width="1.51"/><path d="M-47,-85L-86,212L125,105Z" fill="#f1edf5" stroke="#f1edf5" stroke-width="1.51"/><path d="M1802,962L1768,826L1589,994Z" fill="#67001f" stroke="#67001f" stroke-width="1.51"/><path d="M1589,994L1768,826L1582,734Z" fill="#710026" stroke="#710026" stroke-width="1.51"/><path d="M-159,532L51,351L-43,309Z" fill="#e9b9da" stroke="#e9b9da" stroke-width="1.51"/><path d="M1726,341L1800,142L1537,132Z" fill="#a46577" stroke="#a46577" stroke-width="1.51"/><path d="M1583,-58L1706,-224L1459,-266Z" fill="#b57e83" stroke="#b57e83" stroke-width="1.51"/><path d="M1980,378L1800,142L1726,341Z" fill="#9f5871" stroke="#9f5871" stroke-width="1.51"/><path d="M-97,700L-15,950L65,770Z" fill="#ca8695" stroke="#ca8695" stroke-width="1.51"/><path d="M1800,142L1726,-44L1537,132Z" fill="#af7880" stroke="#af7880" stroke-width="1.51"/><path d="M60,1012L170,1214L328,919Z" fill="#ac747e" stroke="#ac747e" stroke-width="1.51"/><path d="M-87,1220L170,1214L60,1012Z" fill="#b37b82" stroke="#b37b82" stroke-width="1.51"/><path d="M-221,355L-159,532L-43,309Z" fill="#e9b8d9" stroke="#e9b8d9" stroke-width="1.51"/><path d="M-97,700L-258,766L-15,950Z" fill="#cb8695" stroke="#cb8695" stroke-width="1.51"/><path d="M80,-56L-47,-85L125,105Z" fill="#f4f1f7" stroke="#f4f1f7" stroke-width="1.51"/><path d="M340,-198L91,-235L80,-56Z" fill="#efebf4" stroke="#efebf4" stroke-width="1.51"/><path d="M910,-303L91,-235L544,-210Z" fill="#e2c6e1" stroke="#e2c6e1" stroke-width="1.51"/><path d="M-86,212L-221,355L-43,309Z" fill="#e3cbe4" stroke="#e3cbe4" stroke-width="1.51"/><path d="M91,-235L-47,-85L80,-56Z" fill="#f5f2f8" stroke="#f5f2f8" stroke-width="1.51"/><path d="M1797,607L1913,560L1726,341Z" fill="#a4285b" stroke="#a4285b" stroke-width="1.51"/><path d="M1951,821L1913,560L1797,607Z" fill="#9a083c" stroke="#9a083c" stroke-width="1.51"/><path d="M1768,826L1951,821L1797,607Z" fill="#870233" stroke="#870233" stroke-width="1.51"/><path d="M1671,1216L1802,962L1589,994Z" fill="#67001f" stroke="#67001f" stroke-width="1.51"/><path d="M-280,209L-221,355L-86,212Z" fill="#e4d1e6" stroke="#e4d1e6" stroke-width="1.51"/><path d="M-159,532L-220,624L-97,700Z" fill="#f298b2" stroke="#f298b2" stroke-width="1.51"/><path d="M-221,355L-220,624L-159,532Z" fill="#f3a6cb" stroke="#f3a6cb" stroke-width="1.51"/><path d="M1896,-4L1706,-224L1726,-44Z" fill="#b57e83" stroke="#b57e83" stroke-width="1.51"/><path d="M1726,-44L1706,-224L1583,-58Z" fill="#b57e83" stroke="#b57e83" stroke-width="1.51"/><path d="M1896,-4L1726,-44L1800,142Z" fill="#b37b82" stroke="#b37b82" stroke-width="1.51"/><path d="M1477,1151L1671,1216L1589,994Z" fill="#67001f" stroke="#67001f" stroke-width="1.51"/><path d="M1396,1195L1671,1216L1477,1151Z" fill="#67001f" stroke="#67001f" stroke-width="1.51"/><path d="M776,1225L1671,1216L1396,1195Z" fill="#7c002f" stroke="#7c002f" stroke-width="1.51"/><path d="M1913,560L1980,378L1726,341Z" fill="#a23b65" stroke="#a23b65" stroke-width="1.51"/><path d="M1951,821L1980,378L1913,560Z" fill="#a3104d" stroke="#a3104d" stroke-width="1.51"/><path d="M1957,98L1896,-4L1800,142Z" fill="#af7880" stroke="#af7880" stroke-width="1.51"/><path d="M1931,883L1951,821L1768,826Z" fill="#730028" stroke="#730028" stroke-width="1.51"/><path d="M1931,883L1768,826L1802,962Z" fill="#690020" stroke="#690020" stroke-width="1.51"/><path d="M1898,1091L1931,883L1802,962Z" fill="#67001f" stroke="#67001f" stroke-width="1.51"/><path d="M-220,624L-258,766L-97,700Z" fill="#e691a1" stroke="#e691a1" stroke-width="1.51"/><path d="M-15,950L-87,1220L60,1012Z" fill="#b57e83" stroke="#b57e83" stroke-width="1.51"/><path d="M-280,209L-258,766L-220,624Z" fill="#f5a1c5" stroke="#f5a1c5" stroke-width="1.51"/><path d="M1980,378L1957,98L1800,142Z" fill="#a46577" stroke="#a46577" stroke-width="1.51"/><path d="M-221,355L-280,209L-220,624Z" fill="#e9b9da" stroke="#e9b9da" stroke-width="1.51"/><path d="M-262,16L-280,209L-86,212Z" fill="#ece4f1" stroke="#ece4f1" stroke-width="1.51"/><path d="M-47,-85L-262,16L-86,212Z" fill="#f3f0f7" stroke="#f3f0f7" stroke-width="1.51"/><path d="M-145,-290L-262,16L-47,-85Z" fill="#f7f4f9" stroke="#f7f4f9" stroke-width="1.51"/><path d="M170,1214L-87,1220L348,1225Z" fill="#ae777f" stroke="#ae777f" stroke-width="1.51"/><path d="M-344,983L-87,1220L-15,950Z" fill="#b57e83" stroke="#b57e83" stroke-width="1.51"/><path d="M1931,883L1898,1091L1951,821Z" fill="#67001f" stroke="#67001f" stroke-width="1.51"/><path d="M1671,1216L1898,1091L1802,962Z" fill="#67001f" stroke="#67001f" stroke-width="1.51"/><path d="M91,-235L-145,-290L-47,-85Z" fill="#f7f4f9" stroke="#f7f4f9" stroke-width="1.51"/><path d="M910,-303L-145,-290L91,-235Z" fill="#eadfee" stroke="#eadfee" stroke-width="1.51"/><path d="M-271,-299L-145,-290L910,-303Z" fill="#efebf4" stroke="#efebf4" stroke-width="1.51"/><path d="M-258,766L-344,983L-15,950Z" fill="#b57e83" stroke="#b57e83" stroke-width="1.51"/><path d="M-280,209L-344,983L-258,766Z" fill="#ee95a9" stroke="#ee95a9" stroke-width="1.51"/><path d="M1980,378L1942,-285L1957,98Z" fill="#b07980" stroke="#b07980" stroke-width="1.51"/><path d="M1957,98L1942,-285L1896,-4Z" fill="#b57e83" stroke="#b57e83" stroke-width="1.51"/><path d="M1896,-4L1942,-285L1706,-224Z" fill="#b57e83" stroke="#b57e83" stroke-width="1.51"/><path d="M1706,-224L1942,-285L1459,-266Z" fill="#b57e83" stroke="#b57e83" stroke-width="1.51"/><path d="M1459,-266L1942,-285L1382,-278Z" fill="#b57e83" stroke="#b57e83" stroke-width="1.51"/><path d="M1382,-278L1942,-285L1105,-317Z" fill="#b57e83" stroke="#b57e83" stroke-width="1.51"/><path d="M-344,983L-273,1217L-87,1220Z" fill="#b57e83" stroke="#b57e83" stroke-width="1.51"/><path d="M-145,-290L-271,-299L-262,16Z" fill="#f7f4f9" stroke="#f7f4f9" stroke-width="1.51"/><path d="M-262,16L-271,-299L-280,209Z" fill="#f7f4f9" stroke="#f7f4f9" stroke-width="1.51"/><path d="M-280,209L-271,-299L-344,983Z" fill="#e2cae3" stroke="#e2cae3" stroke-width="1.51"/><path d="M1105,-317L-271,-299L910,-303Z" fill="#e4bfdd" stroke="#e4bfdd" stroke-width="1.51"/></svg>