<svg width="1349" height="447" xmlns="http://www.w3.org/2000/svg"><g><path d="M-76,-16L-107,26L77,90Z" fill="#fff4ed" stroke="#fff4ed"/><path d="M-76,-16L77,90L128,-108Z" fill="#fff2ed" stroke="#fff2ed"/><path d="M128,-108L77,90L185,-38Z" fill="#feeae7" stroke="#feeae7"/><path d="M128,-108L185,-38L378,-115Z" fill="#fee2e0" stroke="#fee2e0"/><path d="M185,-38L77,90L267,45Z" fill="#fee2de" stroke="#fee2de"/><path d="M185,-38L267,45L378,-115Z" fill="#fedede" stroke="#fedede"/><path d="M378,-115L267,45L383,106Z" fill="#fdd7db" stroke="#fdd7db"/><path d="M378,-115L383,106L503,-48Z" fill="#fdd2db" stroke="#fdd2db"/><path d="M378,-115L503,-48L731,-60Z" fill="#fcc5d6" stroke="#fcc5d6"/><path d="M378,-115L731,-60L925,-87Z" fill="#fbb3d0" stroke="#fbb3d0"/><path d="M378,-115L925,-87L1286,-132Z" fill="#e693c7" stroke="#e693c7"/><path d="M503,-48L383,106L563,105Z" fill="#fdc4cf" stroke="#fdc4cf"/><path d="M503,-48L563,105L731,-60Z" fill="#fcbdd4" stroke="#fcbdd4"/><path d="M731,-60L563,105L620,127Z" fill="#fbb1c8" stroke="#fbb1c8"/><path d="M731,-60L620,127L838,130Z" fill="#f5a1c2" stroke="#f5a1c2"/><path d="M731,-60L838,130L865,-68Z" fill="#ec9cc9" stroke="#ec9cc9"/><path d="M731,-60L865,-68L925,-87Z" fill="#e997c8" stroke="#e997c8"/><path d="M865,-68L838,130L1028,87Z" fill="#e086bc" stroke="#e086bc"/><path d="M865,-68L1028,87L925,-87Z" fill="#dc8bc3" stroke="#dc8bc3"/><path d="M925,-87L1028,87L1133,-36Z" fill="#cd86bf" stroke="#cd86bf"/><path d="M925,-87L1133,-36L1286,-132Z" fill="#be81bc" stroke="#be81bc"/><path d="M1133,-36L1028,87L1171,74Z" fill="#bf7cb4" stroke="#bf7cb4"/><path d="M1133,-36L1171,74L1286,-132Z" fill="#b180b8" stroke="#b180b8"/><path d="M1286,-132L1171,74L1227,129Z" fill="#ab7db3" stroke="#ab7db3"/><path d="M1286,-132L1227,129L1439,64Z" fill="#9d7db0" stroke="#9d7db0"/><path d="M1286,-132L1439,64L1482,-75Z" fill="#8e80af" stroke="#8e80af"/><path d="M1482,-75L1439,64L1484,226Z" fill="#8376a0" stroke="#8376a0"/><path d="M-107,26L-95,218L77,90Z" fill="#ffe4e4" stroke="#ffe4e4"/><path d="M77,90L-95,218L31,279Z" fill="#ffc0d5" stroke="#ffc0d5"/><path d="M77,90L31,279L211,275Z" fill="#feafcb" stroke="#feafcb"/><path d="M77,90L211,275L267,45Z" fill="#fec9d0" stroke="#fec9d0"/><path d="M267,45L211,275L383,106Z" fill="#fdbecb" stroke="#fdbecb"/><path d="M383,106L211,275L392,274Z" fill="#fd9abf" stroke="#fd9abf"/><path d="M383,106L392,274L520,283Z" fill="#fd90bc" stroke="#fd90bc"/><path d="M383,106L520,283L563,105Z" fill="#fca3c3" stroke="#fca3c3"/><path d="M563,105L520,283L620,127Z" fill="#fc96be" stroke="#fc96be"/><path d="M620,127L520,283L672,263Z" fill="#fc7ab4" stroke="#fc7ab4"/><path d="M620,127L672,263L838,130Z" fill="#f782b7" stroke="#f782b7"/><path d="M838,130L672,263L884,198Z" fill="#ee69af" stroke="#ee69af"/><path d="M838,130L884,198L1028,87Z" fill="#df6fb2" stroke="#df6fb2"/><path d="M1028,87L884,198L1031,252Z" fill="#d55ba9" stroke="#d55ba9"/><path d="M1028,87L1031,252L1089,268Z" fill="#c94da2" stroke="#c94da2"/><path d="M1028,87L1089,268L1171,74Z" fill="#c163a9" stroke="#c163a9"/><path d="M1171,74L1089,268L1227,129Z" fill="#b65ca5" stroke="#b65ca5"/><path d="M1227,129L1089,268L1258,167Z" fill="#b24e9e" stroke="#b24e9e"/><path d="M1227,129L1258,167L1439,64Z" fill="#9e68a2" stroke="#9e68a2"/><path d="M1439,64L1258,167L1484,226Z" fill="#905e9c" stroke="#905e9c"/><path d="M-95,218L-30,477L-24,424Z" fill="#c78bbc" stroke="#c78bbc"/><path d="M-95,218L-24,424L31,279Z" fill="#ef8ac4" stroke="#ef8ac4"/><path d="M31,279L-24,424L87,338Z" fill="#d785ba" stroke="#d785ba"/><path d="M31,279L87,338L211,275Z" fill="#f47ebb" stroke="#f47ebb"/><path d="M211,275L87,338L183,343Z" fill="#e87ab4" stroke="#e87ab4"/><path d="M211,275L183,343L392,274Z" fill="#f472b1" stroke="#f472b1"/><path d="M392,274L183,343L415,419Z" fill="#d76ba9" stroke="#d76ba9"/><path d="M392,274L415,419L520,283Z" fill="#e262a9" stroke="#e262a9"/><path d="M520,283L415,419L545,398Z" fill="#c95ca1" stroke="#c95ca1"/><path d="M520,283L545,398L661,315Z" fill="#dd52a2" stroke="#dd52a2"/><path d="M520,283L661,315L672,263Z" fill="#f353a7" stroke="#f353a7"/><path d="M672,263L661,315L875,360Z" fill="#e13b9e" stroke="#e13b9e"/><path d="M672,263L875,360L884,198Z" fill="#e63da0" stroke="#e63da0"/><path d="M884,198L875,360L1003,348Z" fill="#d21e96" stroke="#d21e96"/><path d="M884,198L1003,348L1031,252Z" fill="#d12e9a" stroke="#d12e9a"/><path d="M1031,252L1003,348L1089,268Z" fill="#c21c93" stroke="#c21c93"/><path d="M1089,268L1003,348L1112,408Z" fill="#a2158a" stroke="#a2158a"/><path d="M1089,268L1112,408L1274,332Z" fill="#961287" stroke="#961287"/><path d="M1089,268L1274,332L1258,167Z" fill="#aa2b92" stroke="#aa2b92"/><path d="M1258,167L1274,332L1484,226Z" fill="#96338f" stroke="#96338f"/><path d="M1484,226L1274,332L1437,380Z" fill="#7c1280" stroke="#7c1280"/><path d="M1484,226L1437,380L1431,496Z" fill="#521276" stroke="#521276"/><path d="M-24,424L-30,477L68,580Z" fill="#7f87a6" stroke="#7f87a6"/><path d="M-24,424L68,580L87,338Z" fill="#9b84aa" stroke="#9b84aa"/><path d="M87,338L68,580L192,562Z" fill="#7f7d9e" stroke="#7f7d9e"/><path d="M87,338L192,562L183,343Z" fill="#ae7aa7" stroke="#ae7aa7"/><path d="M183,343L192,562L389,532Z" fill="#867297" stroke="#867297"/><path d="M183,343L389,532L415,419Z" fill="#a36b9c" stroke="#a36b9c"/><path d="M415,419L389,532L484,508Z" fill="#816391" stroke="#816391"/><path d="M415,419L484,508L545,398Z" fill="#9c5d96" stroke="#9c5d96"/><path d="M545,398L484,508L698,487Z" fill="#8d528f" stroke="#8d528f"/><path d="M545,398L698,487L661,315Z" fill="#b44b96" stroke="#b44b96"/><path d="M661,315L698,487L875,360Z" fill="#b33a92" stroke="#b33a92"/><path d="M875,360L698,487L838,509Z" fill="#863086" stroke="#863086"/><path d="M875,360L838,509L998,477Z" fill="#7d1f81" stroke="#7d1f81"/><path d="M875,360L998,477L1003,348Z" fill="#941c86" stroke="#941c86"/><path d="M1003,348L998,477L1112,408Z" fill="#7d1781" stroke="#7d1781"/><path d="M1112,408L998,477L1113,484Z" fill="#5c1578" stroke="#5c1578"/><path d="M1112,408L1113,484L1274,332Z" fill="#69127c" stroke="#69127c"/><path d="M1274,332L1113,484L1262,573Z" fill="#401271" stroke="#401271"/><path d="M1274,332L1262,573L1431,496Z" fill="#2c126c" stroke="#2c126c"/><path d="M1274,332L1431,496L1437,380Z" fill="#491273" stroke="#491273"/><path d="M68,580L1262,573L192,562Z" fill="#7d5a82" stroke="#7d5a82"/><path d="M192,562L1262,573L389,532Z" fill="#7c4d7f" stroke="#7c4d7f"/><path d="M389,532L1262,573L838,509Z" fill="#6a2b77" stroke="#6a2b77"/><path d="M389,532L838,509L484,508Z" fill="#7c5287" stroke="#7c5287"/><path d="M484,508L838,509L698,487Z" fill="#7c4685" stroke="#7c4685"/><path d="M838,509L1262,573L998,477Z" fill="#4d1871" stroke="#4d1871"/><path d="M998,477L1262,573L1113,484Z" fill="#3d126e" stroke="#3d126e"/></g></svg>